<?xml version="1.0" encoding="UTF-8"?>
<!DOCTYPE svg PUBLIC "-//W3C//DTD SVG 1.1//EN" "http://www.w3.org/Graphics/SVG/1.1/DTD/svg11.dtd">
<!-- Creator: CorelDRAW 2019 (64-Bit) -->
<svg xmlns="http://www.w3.org/2000/svg" xml:space="preserve" width="1535px" height="1535px" version="1.1" style="shape-rendering:geometricPrecision; text-rendering:geometricPrecision; image-rendering:optimizeQuality; fill-rule:evenodd; clip-rule:evenodd"
viewBox="0 0 408.45 408.45"
 xmlns:xlink="http://www.w3.org/1999/xlink"
 xmlns:xodm="http://www.corel.com/coreldraw/odm/2003">
 <defs>
  <style type="text/css">
   <![CDATA[
    .fil3 {fill:none}
    .fil1 {fill:url(#id0)}
    .fil0 {fill:url(#id1)}
    .fil2 {fill:url(#id2)}
   ]]>
  </style>
  <linearGradient id="id0" gradientUnits="userSpaceOnUse" x1="238.99" y1="38.04" x2="145.6" y2="377.88">
   <stop offset="0" style="stop-opacity:1; stop-color:red"/>
   <stop offset="1" style="stop-opacity:1; stop-color:#FF6600"/>
  </linearGradient>
  <linearGradient id="id1" gradientUnits="userSpaceOnUse" xlink:href="#id0" x1="238.99" y1="38.04" x2="145.6" y2="377.88">
  </linearGradient>
  <linearGradient id="id2" gradientUnits="userSpaceOnUse" xlink:href="#id0" x1="238.99" y1="38.04" x2="145.6" y2="377.88">
  </linearGradient>
 </defs>
 <g id="Layer_x0020_1">
  <metadata id="CorelCorpID_0Corel-Layer"/>
  <g id="_1970988162384">
   <path class="fil0" d="M73.53 272.61l24.09 -24.44 27.57 27.2 -24.27 24.63c-1.26,-0.97 -0.95,-0.88 -1.71,-1.59l-15.46 -15.43c-2.94,-2.81 -8.18,-7.33 -10.22,-10.37zm27.95 -75.74c2.91,0.78 2.96,1.98 4.71,4.11l18.65 18.12c2.03,1.84 2.8,3.56 4.48,5.08l23.73 23.33c2.27,1.79 2.76,2.73 4.61,4.95 1.63,1.95 2.8,2.24 4.69,4.13l9.4 9.73c2.31,2.96 3.05,2.31 4.73,4.82 -2.65,3.62 -18.22,10.82 -22.79,13.24l-64.53 -64.89 9.07 -17.04c1.54,-2.31 2.02,-3.26 3.25,-5.58zm86.77 66.18l-78.13 -77.76c1.41,-4.63 23.81,-32.4 29.09,-38.93l64.48 -72.29c2.11,-2.77 4.81,-4.66 6.62,-7.35l96.51 96.14 -45.99 42.62c-19.87,16.61 -34.2,29.9 -55.98,46.23 -3.37,2.52 -13.21,10.55 -16.6,11.34zm32.17 -206.45c3.56,-4.07 14.78,-16.03 18.57,-18.56l96.14 96.51 -18.02 18.38 -96.69 -96.33zm-145.42 161.6c0,12.38 7.42,12.25 12.5,19.85 -2.82,4.22 -21.28,20.99 -26.67,27.01 -9.46,10.56 4.73,18.2 12.71,27.4l10.46 10.13c1.16,1.02 2.25,2.12 3.27,3.34 2.14,2.54 7.87,8.33 10.66,9.25 4,1.33 7.4,0.22 10.01,-2.28 4.72,-4.52 8.91,-8.97 13.57,-13.63 3.5,-3.5 10.29,-11.08 13.79,-13.42 7.62,5.1 7.58,12.5 19.12,12.5 6.48,0 24.39,-11.7 29.84,-15.02 13.52,-8.24 45.07,-32.4 57.5,-43.24l5.94 -5.09c4.37,-3.53 8.04,-6.73 12.39,-10.4l29.45 -26.44c2.01,-2.02 3.32,-3.59 5.64,-5.39 5.96,-4.6 39.23,-37.28 45.84,-43.88 6.83,-6.84 9.74,-7.36 9.74,-15.99 0,-3.74 -3.22,-5.81 -5.33,-7.91l-97.43 -97.43c-3.85,-3.89 -3.76,-4.97 -10.48,-4.97 -4.96,0 -9.78,6.47 -12.69,9.38l-64.95 68.88c-3.36,4.35 -7.38,7.92 -10.72,12.08 -14.91,18.62 -25.43,29.77 -40.22,49.49l-18.49 26.36c-2.86,4.27 -15.45,24.28 -15.45,29.42z"/>
   <path class="fil1" d="M87.5 332.91c47.57,22.82 105.26,-19.51 140.36,6.72 5.82,4.34 12.92,14.62 14.8,22.7 -14.83,-7.12 -33.69,-8.44 -54.01,-5.48 -9.64,1.4 -17.71,2.83 -27.19,4.43 -13.94,2.34 -31.9,5.36 -45.94,0.97 -2.1,-0.66 -4.86,-1.49 -6.94,-2.62 -8.48,-4.58 -14.1,-11.3 -18.39,-19.85 -2.32,-4.63 -1.85,-5 -2.69,-6.87zm-19.11 -16.91c0,12.03 11.45,38.5 22.06,47.79 33.53,29.37 79.13,5.89 113.24,5.89 18,0 26.65,-0.15 41.19,11.02 3.23,2.48 4.46,5.16 9.55,5.16 17.55,0 -3.44,-40.21 -7.49,-46.2 -4.5,-6.66 -11.27,-12.31 -18.27,-16.29 -18.99,-10.78 -46.58,-5.84 -66.47,-2.53 -6.24,1.04 -10.97,1.7 -17.12,2.73 -56.79,9.44 -59.96,-14.92 -68.61,-14.92 -4.13,0 -8.08,0.83 -8.08,7.35z"/>
   <path class="fil2" d="M177.22 152.02l17.09 16.73 -16.91 17.27 9.54 9.95 17.31 -16.92 17.27 16.91c1.77,-1.13 3.03,-2.67 4.78,-4.42 1.86,-1.86 3.87,-2.97 4.6,-5.7l-16.35 -16.74 16.52 -16.91 -9.56 -9.91 -16.91 16.53 -16.92 -16.53c-2.66,0.84 -8.93,7.45 -10.46,9.74z"/>
  </g>
  <rect class="fil3" width="408.45" height="408.45"/>
 </g>
</svg>
