<?xml version="1.0" encoding="UTF-8"?>
<!DOCTYPE svg PUBLIC "-//W3C//DTD SVG 1.1//EN" "http://www.w3.org/Graphics/SVG/1.1/DTD/svg11.dtd">
<!-- Creator: CorelDRAW 2019 (64-Bit) -->
<svg xmlns="http://www.w3.org/2000/svg" xml:space="preserve" width="1183px" height="1286px" version="1.1" style="shape-rendering:geometricPrecision; text-rendering:geometricPrecision; image-rendering:optimizeQuality; fill-rule:evenodd; clip-rule:evenodd"
viewBox="0 0 180.47 196.2"
 xmlns:xlink="http://www.w3.org/1999/xlink"
 xmlns:xodm="http://www.corel.com/coreldraw/odm/2003">
 <defs>
  <style type="text/css">
   <![CDATA[
    .fil0 {fill:url(#id0)}
    .fil2 {fill:url(#id1)}
    .fil3 {fill:url(#id2)}
    .fil1 {fill:url(#id3)}
   ]]>
  </style>
  <linearGradient id="id0" gradientUnits="userSpaceOnUse" x1="146.95" y1="6.53" x2="5.39" y2="193.3">
   <stop offset="0" style="stop-opacity:1; stop-color:#FF6600"/>
   <stop offset="1" style="stop-opacity:1; stop-color:red"/>
  </linearGradient>
  <linearGradient id="id1" gradientUnits="userSpaceOnUse" xlink:href="#id0" x1="146.95" y1="6.53" x2="5.39" y2="193.3">
  </linearGradient>
  <linearGradient id="id2" gradientUnits="userSpaceOnUse" xlink:href="#id0" x1="146.95" y1="6.53" x2="5.39" y2="193.3">
  </linearGradient>
  <linearGradient id="id3" gradientUnits="userSpaceOnUse" xlink:href="#id0" x1="146.95" y1="6.53" x2="5.39" y2="193.3">
  </linearGradient>
 </defs>
 <g id="Layer_x0020_1">
  <metadata id="CorelCorpID_0Corel-Layer"/>
  <g id="_1970796179664">
   <path class="fil0" d="M53.01 84.31c12.88,-8.85 5.81,-18.29 10.69,-28.93 4.16,6.61 31.69,47.29 34.13,54.97 -7.76,-1.5 -13.56,-5.8 -21.03,-5.77 -7.84,0.03 -12.23,5.04 -17.76,7.41 -4.41,-5.03 -10.6,-15.71 -13.96,-21.66l7.93 -6.02zm18.12 -35.27c11.25,-4.74 56.44,-36.72 67.21,-40.54 4.88,8.95 11.65,19.16 17.16,27.76 4.31,6.7 15,21.97 16.98,28.09l-65.58 41.52c-4.27,-3.24 -34.75,-54.21 -35.77,-56.83zm-34.21 45.43c-7.72,3.97 -21.61,21.49 -16.07,35.31l5.72 0.42c2.43,-5.84 0.62,-20.93 14.7,-28.3 1.7,1.49 0.84,-0.07 2.33,2.47 3.77,6.38 -8.87,8.77 -4.04,25.83l6.44 0.38c1.35,-4.68 1.45,-11 3.51,-15.36 7.79,5.51 1.44,8.98 17.17,6.92 1.05,-2.06 1.22,-10.47 12.67,-8.77 19.36,2.88 8.55,15.33 45.9,-8.79 18.42,-11.9 37.78,-22.93 54.84,-33.71 2.72,-14.21 -9.64,-25.79 -17.83,-39.99l-15.31 -24.35c-8.6,-13.52 -17.17,-3.89 -37.96,9.33l-48.5 30.79c-12.98,11.29 -3.81,22.41 -10.35,29.33 -6.57,6.95 -19.14,-2.05 -13.22,18.49z"/>
   <path class="fil1" d="M12.9 186.91l-1.97 -16.77 36.34 0.06c-0.6,18.7 -1.09,16.66 -7.19,16.86 -8.55,0.29 -18.46,-0.13 -27.18,-0.15zm-4.78 -42.41l42.1 -0.08 -1.78 17.14 -38.63 -0.06 -1.69 -17zm-2.73 48.8c9.91,3.79 37.25,3.81 47.51,0.39 3.05,-11.68 7.45,-46.03 4.03,-56.08 -6.28,-1.61 -50.85,-3.71 -55.09,0.79 -4.93,5.25 1.36,47 3.55,54.9z"/>
   <path class="fil2" d="M98.21 45.81c7.1,1.39 12.01,-3.88 17.26,-7.05 6.07,-3.67 11.07,-7.3 17.4,-10.22 6.66,7.03 6.43,17.46 17.06,15.97 0.7,-7.56 -3.65,-11.14 -7.34,-17.22 -8.19,-13.49 -6.26,-11.6 -32.39,4.8 -5.56,3.49 -12.89,5.85 -11.99,13.72z"/>
   <path class="fil3" d="M150 47.34c-2.35,6.51 4.62,13.83 8.56,9.93 2.17,-2.15 0.91,-5.31 -0.28,-7.29 -2.95,-4.88 -4,-4.52 -8.28,-2.64z"/>
  </g>
 </g>
</svg>
