<?xml version="1.0" encoding="UTF-8"?>
<!DOCTYPE svg PUBLIC "-//W3C//DTD SVG 1.1//EN" "http://www.w3.org/Graphics/SVG/1.1/DTD/svg11.dtd">
<!-- Creator: CorelDRAW 2019 (64-Bit) -->
<svg xmlns="http://www.w3.org/2000/svg" xml:space="preserve" width="1535px" height="1535px" version="1.1" style="shape-rendering:geometricPrecision; text-rendering:geometricPrecision; image-rendering:optimizeQuality; fill-rule:evenodd; clip-rule:evenodd"
viewBox="0 0 221.11 221.11"
 xmlns:xlink="http://www.w3.org/1999/xlink"
 xmlns:xodm="http://www.corel.com/coreldraw/odm/2003">
 <defs>
  <style type="text/css">
   <![CDATA[
    .fil3 {fill:none}
    .fil1 {fill:url(#id0)}
    .fil2 {fill:url(#id1)}
    .fil0 {fill:url(#id2)}
   ]]>
  </style>
  <linearGradient id="id0" gradientUnits="userSpaceOnUse" x1="129.7" y1="20.67" x2="126.93" y2="213.21">
   <stop offset="0" style="stop-opacity:1; stop-color:red"/>
   <stop offset="1" style="stop-opacity:1; stop-color:#FF6600"/>
  </linearGradient>
  <linearGradient id="id1" gradientUnits="userSpaceOnUse" xlink:href="#id0" x1="129.7" y1="20.67" x2="126.93" y2="213.21">
  </linearGradient>
  <linearGradient id="id2" gradientUnits="userSpaceOnUse" xlink:href="#id0" x1="129.7" y1="20.67" x2="126.93" y2="213.21">
  </linearGradient>
 </defs>
 <g id="Layer_x0020_1">
  <metadata id="CorelCorpID_0Corel-Layer"/>
  <g id="_1971253357952">
   <path class="fil0" d="M49.51 95.65c5.66,-2.69 21.9,-5.06 29.28,-5.04 19.8,0.05 23.7,10.26 56.18,0.18 2.05,-0.64 5.71,-2.26 7.37,-2.46l0.06 63.28 -28.86 17.29c-1.56,0.91 -3.29,2.43 -5.05,2.62l-24.69 0c-2.07,0.01 -30.28,-17.59 -34.3,-19.9l0.01 -55.97zm0.07 -9.07c-0.26,-3.58 -0.43,-12.93 0.64,-15.71 1.41,-3.69 4.62,-6.48 9.65,-6.64 10.57,-0.36 21.77,-0.01 32.42,-0.01 10.8,0 21.6,0 32.4,0 10.4,0 18.37,-0.61 17.66,14.69 -11.85,5.77 -30.85,10.35 -45.43,5.86 -7.99,-2.47 -15.31,-2.83 -24.3,-2.33 -11.09,0.62 -19.2,3.82 -23.04,4.14zm90.16 -74.24c-5.94,0 -29.42,-0.3 -33.36,0.09 -1.03,4.49 0.77,6.62 -2.35,10.37 -1.62,1.94 -4.26,4.13 -8.25,4.04 -3.7,-0.08 -6.41,-2.05 -8.1,-4.21 -2.51,-3.21 -1.38,-5.91 -2.1,-10.29l-8.17 0.06c-1.84,9.66 3.65,16.72 8.86,20.13 6.32,4.12 5.47,-1.16 5.47,9.02 0,4.48 0.24,9.67 -0.06,14.05 -3.24,0.7 -14.59,0.19 -18.68,0.19 -11.89,0 -22.04,-2.07 -29.07,8.77 -3.02,4.67 -2.84,9.57 -2.84,15.95 0,25.08 0.06,50.16 0,75.23 0.27,1.29 31.37,19.52 34.95,21.65 2.2,1.29 3.42,2.6 6.58,2.58 2.52,-0.02 6.89,-0.36 9.16,0.2 -0.18,4.51 -0.57,25.58 0.2,28.7l7.96 0c1.03,-4.65 0.18,-22.64 0.21,-28.69 2.4,-0.63 6.85,-0.19 9.52,-0.22 2.89,-0.02 4.31,-1.49 6.42,-2.73 3.48,-2.05 32.73,-19.35 34.69,-21.1 0.49,-12.28 0.01,-25.42 0.05,-37.81 0.04,-12.6 -0.01,-25.2 -0.01,-37.81 0,-6.52 0.36,-11.12 -2.85,-15.94 -2.39,-3.6 -5.68,-6.71 -10.77,-8.13 -6.68,-1.86 -31.47,0.42 -37.03,-0.85l0.06 -20.6c2.38,-1.65 4.07,-0.47 8.82,-5.23 3.19,-3.2 3.34,-4.32 5.2,-8.97 10.15,-0.29 20.71,-0.03 30.9,-0.02 9.98,0 17.05,4.36 20.87,9.56 6.14,8.34 5.31,13.5 5.31,25.49 0,10.78 -0.48,149.94 0.21,153.06l7.95 -0.23c0.86,-1.99 0.27,-121.49 0.27,-135.08 0,-25.2 3.27,-41.45 -13,-54.39 -7.63,-6.07 -14.98,-6.84 -27.02,-6.84z"/>
   <path class="fil1" d="M91.35 136.51c0.99,0.52 0.58,0.67 0.57,3.8l-0.05 13.52 8.13 0.03 -0.06 -15.5c0.04,-1.72 -0.23,-1.13 0.64,-1.84l17.1 -0.05 -0.02 -8.31c-4.66,-0.5 -13.84,0.62 -17.5,-0.33l-0.01 -17.22 -8.38 0.02 -0.02 17.21 -17.26 0.26c-0.72,2.11 -0.31,5.84 -0.21,8.23l17.07 0.18z"/>
   <path class="fil2" d="M100.58 136.52c-0.87,0.71 -0.6,0.12 -0.64,1.84l0.06 15.5 -8.13 -0.03 0.05 -13.52c0.01,-3.13 0.42,-3.28 -0.57,-3.8 0.7,3.51 -0.09,12.21 0.15,16.18 0.15,2.35 1.69,1.59 4.26,1.58 6.18,-0.01 4.62,-0.03 4.62,-6.63 0,-2.72 -0.36,-8.83 0.2,-11.12z"/>
  </g>
  <rect class="fil3" width="221.11" height="221.11"/>
 </g>
</svg>
