<?xml version="1.0" encoding="UTF-8"?>
<!DOCTYPE svg PUBLIC "-//W3C//DTD SVG 1.1//EN" "http://www.w3.org/Graphics/SVG/1.1/DTD/svg11.dtd">
<!-- Creator: CorelDRAW 2019 (64-Bit) -->
<svg xmlns="http://www.w3.org/2000/svg" xml:space="preserve" width="1283px" height="1486px" version="1.1" style="shape-rendering:geometricPrecision; text-rendering:geometricPrecision; image-rendering:optimizeQuality; fill-rule:evenodd; clip-rule:evenodd"
viewBox="0 0 405.41 469.49"
 xmlns:xlink="http://www.w3.org/1999/xlink"
 xmlns:xodm="http://www.corel.com/coreldraw/odm/2003">
 <defs>
  <style type="text/css">
   <![CDATA[
    .fil2 {fill:red}
    .fil0 {fill:url(#id0)}
    .fil1 {fill:url(#id1)}
   ]]>
  </style>
  <linearGradient id="id0" gradientUnits="userSpaceOnUse" x1="263.8" y1="15.56" x2="0" y2="303.54">
   <stop offset="0" style="stop-opacity:1; stop-color:red"/>
   <stop offset="1" style="stop-opacity:1; stop-color:#FF6600"/>
  </linearGradient>
  <linearGradient id="id1" gradientUnits="userSpaceOnUse" xlink:href="#id0" x1="263.81" y1="15.56" x2="0" y2="303.54">
  </linearGradient>
 </defs>
 <g id="Layer_x0020_1">
  <metadata id="CorelCorpID_0Corel-Layer"/>
  <g id="_1970750118432">
   <path class="fil0" d="M110.1 219.17c-4.97,2.63 -9.07,4.5 -14.7,6.9 -5.04,2.16 -9.67,5.2 -15.14,6.48 1.2,5.15 3.55,9.88 5.58,14.99 10.66,26.72 3.81,11.04 -0.44,29.25l-21.22 0.47c-11.93,1.51 -9.64,-8.54 -9.64,27.31 -6.15,-1.43 -17.16,-7.39 -22.64,-10.29 0.97,-4.18 48.21,-77.99 50.01,-80.66 2.11,-3.14 3.07,-5.11 5.13,-8.25 2.09,-3.19 3.28,-4.82 5.25,-8.13l19.05 -30.33c0.87,-1.17 1.1,-1.42 1.85,-2.28 0,18.91 -3.09,36.32 -3.09,54.54zm8.23 -59.68c5.23,-7.81 54.59,-54.05 65.08,-64.57 11.69,-11.7 56.06,-57.66 65.6,-64.05 3.03,4.52 11.31,11.82 15.71,16.19 3.14,3.13 4.14,5.21 7.16,8.27l15.99 15.91c3.15,3.17 4.37,5.49 7.69,8.77 5.41,5.35 11.55,10.88 16.47,16.46l62.51 66.11 -78.46 75.88c-5.36,5.43 -10.04,10.04 -15.43,15.44 -7.12,7.11 -27.06,24.28 -31.64,31.12 -11.23,-5.38 -8.28,-6.36 -12.66,-19.24 -2.04,-5.99 -3.14,-4.73 -9.06,-6.37 -5.59,-1.55 -9.45,-1.56 -11.53,-4.93 -4.8,-7.78 -4.24,-17.32 -10.93,-20.97l-15.56 -8.11c-12.27,-6.99 -7.19,-6.92 -17.85,-22.28 -2.02,-2.92 -5.43,-4.7 -8.41,-7.02 -3.38,-2.64 -5.73,-4.71 -9.11,-7.35l-35.57 -29.26zm-118.33 144.05l55.91 26.41c4.84,2.43 14.5,7.48 19.2,8.58l1.27 -39.09 22.4 -1.04c1.67,-7.16 16.46,-31.08 16.46,-34.98 0,-3.73 -6.04,-14.57 -7.2,-19.56 3.27,-0.76 7.92,-3.26 11.62,-4.84 3.84,-1.65 7.58,-3.63 11.02,-5.45l2.06 -33.95c4.08,2.73 20.03,15.19 22.47,18.68 13.63,19.45 4.55,17.29 31.42,30.32 8.47,4.11 8.35,16.18 13.26,23.79 2.37,3.68 13.5,6.04 18.25,6.44 0.35,4.2 2.08,9.07 3.31,13.15 2.61,8.63 4.35,8.04 19.71,13.22 4.91,1.66 8.36,3.42 12.99,4.5 3.94,-5.88 12.21,-11.68 18.78,-18.27 6.41,-6.42 12.07,-12.17 18.5,-18.54l95.03 -91.22c3.78,-2.92 16.65,-15.67 18.95,-19.11l-38.95 -40.29c-5.59,-7.01 -13.83,-13.22 -19.95,-20.17l-43.21 -45.28c-10.12,-11.48 -17.88,-17.98 -24.7,-25.72l-29.59 -31.12c-4.46,2.99 -28.37,28.13 -34.71,34.23 -3.19,3.08 -5.44,4.33 -8.77,7.7 -22.94,23.21 -105.13,102.15 -111.9,112.41l-66.83 106.04c-7.02,11.76 -21.22,32.62 -26.8,43.16z"/>
   <path class="fil1" d="M342.65 176.98c4.87,0 8.23,-4.18 8.23,-8.23 0,-5.79 -21.43,-24.43 -25.98,-29.59l-27.68 -28.91c-4.47,-5.6 -8.42,-9.23 -13.48,-14.3 -7,-7 -38.97,-42.44 -42.96,-42.44 -8.22,0 -14.84,6.55 -4.38,16.72 2.67,2.6 5.31,4.99 7.71,7.72 2.9,3.29 3.93,4.97 7.21,8.23l81.8 84.89c2.66,2.71 4.65,5.91 9.53,5.91z"/>
  </g>
  <path class="fil2" d="M140.55 456.14c0,18.53 27.51,16.98 26.28,0.27 -0.89,-12.14 -14.95,-16.4 -22.47,-8.81 -1.56,1.56 -3.81,6.11 -3.81,8.54z"/>
  <path class="fil2" d="M181.71 345.01c17.14,0 17.14,-24.69 0,-24.69 -15.29,0 -15.83,24.69 0,24.69z"/>
  <path class="fil2" d="M121 408.81c0,14.44 24.69,18.84 24.69,-1.03 0,-16.06 -24.69,-13.69 -24.69,1.03z"/>
  <path class="fil2" d="M155.98 397.49c0,18.77 15.25,17.32 20.89,11.63 10.98,-11.07 -5.2,-28 -16.98,-18.01 -1.21,1.03 -3.91,4.58 -3.91,6.38z"/>
  <path class="fil2" d="M128.2 348.1c0,18.42 22.64,17.72 22.64,0 0,-13.36 -22.64,-13.36 -22.64,0z"/>
  <path class="fil2" d="M141.58 388.23c6.27,0 14.24,-1.77 12.99,-10.95 -2.44,-17.97 -28.1,-7.04 -19.19,6.83 0.93,1.44 4.1,4.12 6.2,4.12z"/>
  <path class="fil2" d="M194.05 380c15.91,0 12.64,-20.58 2.06,-20.58 -16.38,0 -14.45,20.58 -2.06,20.58z"/>
  <path class="fil2" d="M154.95 310.03c0,11.91 20.58,15.65 20.58,-1.03 0,-12.24 -20.58,-12.99 -20.58,1.03z"/>
  <path class="fil2" d="M175.53 430.42c0,14.85 20.58,14.85 20.58,0 0,-12.43 -20.58,-12.43 -20.58,0z"/>
  <path class="fil2" d="M161.13 356.33c0,11.86 18.52,12.37 18.52,-1.03 0,-10.14 -18.52,-11.58 -18.52,1.03z"/>
 </g>
</svg>
